<svg width="40" height="40" viewBox="0 0 40 40" fill="none" xmlns="http://www.w3.org/2000/svg">
<path d="M19.9929 31.6668C19.6366 31.6668 19.3404 31.547 19.1043 31.3074C18.8682 31.0679 18.7502 30.771 18.7502 30.4168V21.2502H9.5835C9.22933 21.2502 8.93245 21.1297 8.69287 20.8887C8.45329 20.6477 8.3335 20.3491 8.3335 19.9929C8.3335 19.6366 8.45329 19.3404 8.69287 19.1043C8.93245 18.8682 9.22933 18.7502 9.5835 18.7502H18.7502V9.5835C18.7502 9.22933 18.8706 8.93245 19.1116 8.69287C19.3526 8.45329 19.6512 8.3335 20.0075 8.3335C20.3637 8.3335 20.6599 8.45329 20.896 8.69287C21.1321 8.93245 21.2502 9.22933 21.2502 9.5835V18.7502H30.4168C30.771 18.7502 31.0679 18.8706 31.3074 19.1116C31.547 19.3526 31.6668 19.6512 31.6668 20.0075C31.6668 20.3637 31.547 20.6599 31.3074 20.896C31.0679 21.1321 30.771 21.2502 30.4168 21.2502H21.2502V30.4168C21.2502 30.771 21.1297 31.0679 20.8887 31.3074C20.6477 31.547 20.3491 31.6668 19.9929 31.6668Z" fill="white"/>
</svg>
