<svg width="205" height="44" viewBox="0 0 205 44" fill="none" xmlns="http://www.w3.org/2000/svg">
<path d="M13.4375 1.79688C14.8457 1.79688 16.3223 2.0498 17.8672 2.55566C19.4258 3.04785 20.6221 4.03223 21.4561 5.50879C22.1123 6.65723 22.4404 8.03809 22.4404 9.65137C22.4131 11.1963 21.9688 12.5771 21.1074 13.7939C20.4648 14.7236 19.7949 15.3457 19.0977 15.6602C20.5059 16.1113 21.6953 17.1641 22.666 18.8184C23.377 20.0898 23.7324 21.6074 23.7324 23.3711C23.7051 25.0664 23.2197 26.584 22.2764 27.9238C21.4424 29.0996 20.2666 29.9746 18.749 30.5488C17.2451 31.123 15.8643 31.4102 14.6064 31.4102H1.74805C1.11914 31.4102 0.804688 31.1299 0.804688 30.5693C0.804688 30.0498 1.14648 29.667 1.83008 29.4209C2.51367 29.1748 2.85547 28.7031 2.85547 28.0059V5.20117C2.85547 4.51758 2.51367 4.05273 1.83008 3.80664C1.14648 3.56055 0.804688 3.1709 0.804688 2.6377C0.804688 2.07715 1.11914 1.79688 1.74805 1.79688H13.4375ZM7.57227 17.3213V29.0928H11.6943C12.6377 29.0928 13.5811 28.9561 14.5244 28.6826C15.4678 28.4092 16.2812 27.9375 16.9648 27.2676C18.0176 26.2422 18.5439 24.8682 18.5439 23.1455C18.5439 21.4912 17.9902 20.1172 16.8828 19.0234C15.707 17.8887 14.1211 17.3213 12.125 17.3213H7.57227ZM7.57227 14.7168H12.6787C14.1416 14.5527 15.3242 14.04 16.2266 13.1787C17.1699 12.2627 17.6416 11.0254 17.6416 9.4668C17.6416 7.94922 17.1426 6.71191 16.1445 5.75488C15.0918 4.74316 13.6768 4.2373 11.8994 4.2373H7.57227V14.7168ZM30.623 1.87891C32.4551 1.87891 33.3711 2.76758 33.3711 4.54492C33.3711 6.33594 32.4551 7.23145 30.623 7.23145C28.791 7.23145 27.875 6.33594 27.875 4.54492C27.875 2.76758 28.791 1.87891 30.623 1.87891ZM32.9814 28.0059C32.9814 28.7168 33.3232 29.1953 34.0068 29.4414C34.6904 29.6738 35.0322 30.0498 35.0322 30.5693C35.0322 31.1299 34.7246 31.4102 34.1094 31.4102H27.1572C26.5283 31.4102 26.2139 31.1299 26.2139 30.5693C26.2139 30.0498 26.5557 29.6738 27.2393 29.4414C27.9229 29.1953 28.2646 28.7168 28.2646 28.0059V14.8809C28.2646 14.1973 27.9229 13.7324 27.2393 13.4863C26.5557 13.2402 26.2139 12.8506 26.2139 12.3174C26.2139 11.7568 26.5215 11.4766 27.1367 11.4766C27.9844 11.4355 28.832 11.2988 29.6797 11.0664C30.541 10.834 31.6416 10.4922 32.9814 10.041V28.0059ZM44.958 28.0059C44.958 28.7168 45.2998 29.1953 45.9834 29.4414C46.667 29.6738 47.0088 30.0498 47.0088 30.5693C47.0088 31.1299 46.7012 31.4102 46.0859 31.4102H39.1338C38.5049 31.4102 38.1904 31.1299 38.1904 30.5693C38.1904 30.0498 38.5322 29.6738 39.2158 29.4414C39.8994 29.1953 40.2412 28.7168 40.2412 28.0059V5.22168C40.2412 4.52441 39.8994 4.05273 39.2158 3.80664C38.5322 3.56055 38.1904 3.1709 38.1904 2.6377C38.1904 2.07715 38.498 1.79688 39.1133 1.79688C39.9609 1.75586 40.8086 1.62598 41.6562 1.40723C42.5176 1.1748 43.6182 0.833008 44.958 0.381836V28.0059ZM57.2217 28.0059C57.2217 28.7168 57.5635 29.1953 58.2471 29.4414C58.9307 29.6738 59.2725 30.0498 59.2725 30.5693C59.2725 31.1299 58.9648 31.4102 58.3496 31.4102H51.3975C50.7686 31.4102 50.4541 31.1299 50.4541 30.5693C50.4541 30.0498 50.7959 29.6738 51.4795 29.4414C52.1631 29.1953 52.5049 28.7168 52.5049 28.0059V5.22168C52.5049 4.52441 52.1631 4.05273 51.4795 3.80664C50.7959 3.56055 50.4541 3.1709 50.4541 2.6377C50.4541 2.07715 50.7617 1.79688 51.377 1.79688C52.2246 1.75586 53.0723 1.62598 53.9199 1.40723C54.7812 1.1748 55.8818 0.833008 57.2217 0.381836V28.0059ZM80.6826 13.1787L68.0908 28.9697H76.0479C76.5947 28.9424 77.0732 28.7373 77.4834 28.3545C77.9072 27.958 78.4062 27.3564 78.9805 26.5498C79.4316 25.9482 79.8008 25.6475 80.0879 25.6475C80.6758 25.6475 80.9697 25.9072 80.9697 26.4268V29.667C80.9697 30.4736 80.8193 30.9658 80.5186 31.1436C80.2314 31.3213 79.5479 31.4102 78.4678 31.4102L64.4199 31.4307C63.3672 31.417 62.6494 31.3486 62.2666 31.2256C61.8701 31.1299 61.6719 30.9111 61.6719 30.5693C61.6719 30.3369 61.8086 30.0566 62.082 29.7285L74.5508 13.7529H68.2549C67.708 13.7529 67.2432 13.9512 66.8604 14.3477C66.4912 14.7305 66.0264 15.3184 65.4658 16.1113C65.0146 16.6992 64.6455 16.9932 64.3584 16.9932C63.7568 16.9932 63.4561 16.7402 63.4561 16.2344V12.9736C63.4561 12.2354 63.6201 11.7568 63.9482 11.5381C64.2764 11.3193 64.9531 11.21 65.9785 11.21H78.7344C80.293 11.21 81.0723 11.5654 81.0723 12.2764C81.0723 12.5498 80.9424 12.8506 80.6826 13.1787ZM96.4941 1.79688C97.9023 1.79688 99.3789 2.0498 100.924 2.55566C102.482 3.04785 103.679 4.03223 104.513 5.50879C105.169 6.65723 105.497 8.03809 105.497 9.65137C105.47 11.1963 105.025 12.5771 104.164 13.7939C103.521 14.7236 102.852 15.3457 102.154 15.6602C103.562 16.1113 104.752 17.1641 105.723 18.8184C106.434 20.0898 106.789 21.6074 106.789 23.3711C106.762 25.0664 106.276 26.584 105.333 27.9238C104.499 29.0996 103.323 29.9746 101.806 30.5488C100.302 31.123 98.9209 31.4102 97.6631 31.4102H84.8047C84.1758 31.4102 83.8613 31.1299 83.8613 30.5693C83.8613 30.0498 84.2031 29.667 84.8867 29.4209C85.5703 29.1748 85.9121 28.7031 85.9121 28.0059V5.20117C85.9121 4.51758 85.5703 4.05273 84.8867 3.80664C84.2031 3.56055 83.8613 3.1709 83.8613 2.6377C83.8613 2.07715 84.1758 1.79688 84.8047 1.79688H96.4941ZM90.6289 17.3213V29.0928H94.751C95.6943 29.0928 96.6377 28.9561 97.5811 28.6826C98.5244 28.4092 99.3379 27.9375 100.021 27.2676C101.074 26.2422 101.601 24.8682 101.601 23.1455C101.601 21.4912 101.047 20.1172 99.9395 19.0234C98.7637 17.8887 97.1777 17.3213 95.1816 17.3213H90.6289ZM90.6289 14.7168H95.7354C97.1982 14.5527 98.3809 14.04 99.2832 13.1787C100.227 12.2627 100.698 11.0254 100.698 9.4668C100.698 7.94922 100.199 6.71191 99.2012 5.75488C98.1484 4.74316 96.7334 4.2373 94.9561 4.2373H90.6289V14.7168ZM129.327 28.0059C129.327 28.7168 129.669 29.1953 130.353 29.4414C131.036 29.6738 131.378 30.0498 131.378 30.5693C131.378 31.1299 131.063 31.4102 130.435 31.4102H125.451C124.877 31.4102 124.59 31.1846 124.59 30.7334V30.0566C124.33 30.1523 123.906 30.3164 123.318 30.5488C122.73 30.7676 122.177 30.9658 121.657 31.1436C120.358 31.5811 119.019 31.8682 117.638 32.0049C117.419 32.0186 117.214 32.0254 117.022 32.0254C115.751 32.0254 114.555 31.6084 113.434 30.7744C111.656 29.4209 110.768 26.5908 110.768 22.2842V14.8809C110.768 14.1973 110.426 13.7324 109.742 13.4863C109.059 13.2402 108.717 12.8506 108.717 12.3174C108.717 11.7568 109.024 11.4766 109.64 11.4766C110.487 11.4355 111.335 11.2988 112.183 11.0664C113.044 10.834 114.151 10.4922 115.505 10.041V22.2842C115.505 25.1963 116.086 27.2129 117.248 28.334C117.945 29.0176 118.786 29.3594 119.771 29.3594C120.358 29.3594 121.021 29.2363 121.76 28.9902C122.02 28.9082 122.382 28.7783 122.847 28.6006C123.312 28.4229 123.701 28.2725 124.016 28.1494C124.098 28.1221 124.214 28.0811 124.364 28.0264L124.59 27.9443V14.8809C124.59 14.1973 124.248 13.7324 123.564 13.4863C122.881 13.2402 122.539 12.8506 122.539 12.3174C122.539 11.7568 122.847 11.4766 123.462 11.4766C124.31 11.4355 125.157 11.2988 126.005 11.0664C126.866 10.834 127.974 10.4922 129.327 10.041V28.0059ZM149.158 29.8516L144.236 31.6562C143.73 31.834 143.3 31.9229 142.944 31.9229H142.083C139.978 31.8135 138.187 30.9795 136.71 29.4209C135.22 27.835 134.372 25.9141 134.167 23.6582C134.112 23.084 134.085 22.5234 134.085 21.9766C134.085 21.252 134.133 20.5479 134.229 19.8643C134.406 18.6475 134.878 17.4375 135.644 16.2344C136.013 15.5918 136.655 14.9219 137.571 14.2246C137.913 13.9922 138.289 13.7871 138.699 13.6094C139.807 13.1992 140.907 12.7891 142.001 12.3789C143.108 11.9688 144.216 11.5586 145.323 11.1484C145.624 11.0391 145.911 10.9844 146.185 10.9844H146.308C147.237 11.0254 148.358 11.2578 149.671 11.6816H149.712C149.712 11.668 149.527 11.5723 149.158 11.3945V5.22168C149.158 4.52441 148.816 4.05273 148.133 3.80664C147.449 3.56055 147.107 3.1709 147.107 2.6377C147.107 2.07715 147.415 1.79688 148.03 1.79688C148.878 1.75586 149.726 1.62598 150.573 1.40723C151.435 1.1748 152.542 0.833008 153.896 0.381836V28.0059C153.896 28.7168 154.237 29.1953 154.921 29.4414C155.604 29.6738 155.946 30.0498 155.946 30.5693C155.946 31.1299 155.632 31.4102 155.003 31.4102H150.02C149.445 31.4102 149.158 31.1846 149.158 30.7334V29.8516ZM149.158 15.3525C148.666 14.915 148.003 14.5049 147.169 14.1221C146.335 13.7256 145.61 13.5137 144.995 13.4863H144.934C144.742 13.4863 144.537 13.5273 144.318 13.6094C143.826 13.7871 143.334 13.9717 142.842 14.1631C142.363 14.3408 141.878 14.5186 141.386 14.6963C141.126 14.8057 140.921 14.9424 140.771 15.1064C139.978 15.9541 139.444 16.9863 139.171 18.2031C138.938 19.1602 138.822 20.1035 138.822 21.0332C138.822 21.3203 138.836 21.6211 138.863 21.9355C139.014 23.8359 139.526 25.374 140.401 26.5498C141.249 27.7393 142.302 28.5049 143.56 28.8467C144.024 28.9834 144.496 29.0518 144.975 29.0518C145.125 29.0518 145.275 29.0449 145.426 29.0312C145.672 29.0039 145.979 28.9287 146.349 28.8057C146.663 28.6963 147.155 28.5186 147.825 28.2725C148.495 28.0127 148.939 27.8418 149.158 27.7598V15.3525ZM174.424 29.8516L169.502 31.6562C168.996 31.834 168.565 31.9229 168.21 31.9229H167.349C165.243 31.8135 163.452 30.9795 161.976 29.4209C160.485 27.835 159.638 25.9141 159.433 23.6582C159.378 23.084 159.351 22.5234 159.351 21.9766C159.351 21.252 159.398 20.5479 159.494 19.8643C159.672 18.6475 160.144 17.4375 160.909 16.2344C161.278 15.5918 161.921 14.9219 162.837 14.2246C163.179 13.9922 163.555 13.7871 163.965 13.6094C165.072 13.1992 166.173 12.7891 167.267 12.3789C168.374 11.9688 169.481 11.5586 170.589 11.1484C170.89 11.0391 171.177 10.9844 171.45 10.9844H171.573C172.503 11.0254 173.624 11.2578 174.937 11.6816H174.978C174.978 11.668 174.793 11.5723 174.424 11.3945V5.22168C174.424 4.52441 174.082 4.05273 173.398 3.80664C172.715 3.56055 172.373 3.1709 172.373 2.6377C172.373 2.07715 172.681 1.79688 173.296 1.79688C174.144 1.75586 174.991 1.62598 175.839 1.40723C176.7 1.1748 177.808 0.833008 179.161 0.381836V28.0059C179.161 28.7168 179.503 29.1953 180.187 29.4414C180.87 29.6738 181.212 30.0498 181.212 30.5693C181.212 31.1299 180.897 31.4102 180.269 31.4102H175.285C174.711 31.4102 174.424 31.1846 174.424 30.7334V29.8516ZM174.424 15.3525C173.932 14.915 173.269 14.5049 172.435 14.1221C171.601 13.7256 170.876 13.5137 170.261 13.4863H170.199C170.008 13.4863 169.803 13.5273 169.584 13.6094C169.092 13.7871 168.6 13.9717 168.107 14.1631C167.629 14.3408 167.144 14.5186 166.651 14.6963C166.392 14.8057 166.187 14.9424 166.036 15.1064C165.243 15.9541 164.71 16.9863 164.437 18.2031C164.204 19.1602 164.088 20.1035 164.088 21.0332C164.088 21.3203 164.102 21.6211 164.129 21.9355C164.279 23.8359 164.792 25.374 165.667 26.5498C166.515 27.7393 167.567 28.5049 168.825 28.8467C169.29 28.9834 169.762 29.0518 170.24 29.0518C170.391 29.0518 170.541 29.0449 170.691 29.0312C170.938 29.0039 171.245 28.9287 171.614 28.8057C171.929 28.6963 172.421 28.5186 173.091 28.2725C173.761 28.0127 174.205 27.8418 174.424 27.7598V15.3525ZM186.38 14.7168C186.188 14.2793 185.908 13.9375 185.539 13.6914C185.225 13.4863 184.855 13.3018 184.432 13.1377C184.008 12.96 183.741 12.7207 183.632 12.4199C183.577 12.2969 183.55 12.1875 183.55 12.0918C183.55 11.6953 183.81 11.4971 184.329 11.4971H191.056C191.562 11.4971 191.903 11.709 192.081 12.1328C192.136 12.2285 192.163 12.3311 192.163 12.4404C192.163 12.7549 191.965 13.0078 191.568 13.1992C191.377 13.2949 191.24 13.459 191.158 13.6914C191.131 13.7734 191.117 13.8691 191.117 13.9785C191.117 14.1016 191.151 14.2314 191.22 14.3682L196.101 26.3037L200.325 16.1729C200.435 15.9268 200.489 15.6875 200.489 15.4551C200.489 15.0586 200.325 14.6689 199.997 14.2861L199.095 13.1992L201.228 11.5381C201.392 11.3604 201.59 11.2715 201.822 11.2715C202.082 11.2715 202.321 11.3809 202.54 11.5996L203.688 12.7686C203.989 13.083 204.14 13.4658 204.14 13.917C204.14 14.1494 204.092 14.416 203.996 14.7168C203.777 15.373 203.449 16.1455 203.012 17.0342L192.881 39.6338C192.457 40.5361 192.081 41.2949 191.753 41.9102C191.329 42.6484 190.755 43.0176 190.03 43.0176H189.948L188.267 42.9561C187.706 42.8604 187.426 42.5938 187.426 42.1562L187.282 39.4287L188.841 39.3877C189.538 39.3604 190.037 39.0459 190.338 38.4443L193.537 31.7998C193.578 31.7998 193.599 31.7861 193.599 31.7588C193.599 31.7041 193.551 31.6221 193.455 31.5127C193.373 31.4307 193.298 31.2871 193.229 31.082C193.161 30.8906 193.113 30.7607 193.086 30.6924L186.38 14.7168Z" fill="url(#paint0_linear_33_7)"/>
<defs>
<linearGradient id="paint0_linear_33_7" x1="88.61" y1="-13" x2="101.694" y2="45.069" gradientUnits="userSpaceOnUse">
<stop stop-color="#6300B0"/>
<stop offset="1" stop-color="#6C69FC" stop-opacity="0.99"/>
</linearGradient>
</defs>
</svg>
