<svg width="40" height="40" viewBox="0 0 40 40" fill="none" xmlns="http://www.w3.org/2000/svg">
<path d="M15.5418 22.5002H22.4168C22.771 22.5002 23.0679 22.3797 23.3075 22.1387C23.547 21.8977 23.6668 21.5991 23.6668 21.2429C23.6668 20.8866 23.547 20.5904 23.3075 20.3543C23.0679 20.1182 22.771 20.0002 22.4168 20.0002H15.5418C15.1877 20.0002 14.8908 20.1206 14.6512 20.3616C14.4116 20.6026 14.2918 20.9012 14.2918 21.2575C14.2918 21.6137 14.4116 21.9099 14.6512 22.146C14.8908 22.3821 15.1877 22.5002 15.5418 22.5002ZM15.5418 18.7502H29.5002C29.8543 18.7502 30.1512 18.6297 30.3908 18.3887C30.6304 18.1477 30.7502 17.8491 30.7502 17.4929C30.7502 17.1366 30.6304 16.8404 30.3908 16.6043C30.1512 16.3682 29.8543 16.2502 29.5002 16.2502H15.5418C15.1877 16.2502 14.8908 16.3706 14.6512 16.6116C14.4116 16.8526 14.2918 17.1512 14.2918 17.5075C14.2918 17.8637 14.4116 18.1599 14.6512 18.396C14.8908 18.6321 15.1877 18.7502 15.5418 18.7502ZM15.5418 15.0002H29.5002C29.8543 15.0002 30.1512 14.8797 30.3908 14.6387C30.6304 14.3977 30.7502 14.0991 30.7502 13.7429C30.7502 13.3866 30.6304 13.0904 30.3908 12.8543C30.1512 12.6182 29.8543 12.5002 29.5002 12.5002H15.5418C15.1877 12.5002 14.8908 12.6206 14.6512 12.8616C14.4116 13.1026 14.2918 13.4012 14.2918 13.7575C14.2918 14.1137 14.4116 14.4099 14.6512 14.646C14.8908 14.8821 15.1877 15.0002 15.5418 15.0002ZM10.8335 31.6668C10.1668 31.6668 9.5835 31.4168 9.0835 30.9168C8.5835 30.4168 8.3335 29.8335 8.3335 29.1668V5.8335C8.3335 5.16683 8.5835 4.5835 9.0835 4.0835C9.5835 3.5835 10.1668 3.3335 10.8335 3.3335H34.1668C34.8335 3.3335 35.4168 3.5835 35.9168 4.0835C36.4168 4.5835 36.6668 5.16683 36.6668 5.8335V29.1668C36.6668 29.8335 36.4168 30.4168 35.9168 30.9168C35.4168 31.4168 34.8335 31.6668 34.1668 31.6668H10.8335ZM10.8335 29.1668H34.1668V5.8335H10.8335V29.1668ZM5.8335 36.6668C5.16683 36.6668 4.5835 36.4168 4.0835 35.9168C3.5835 35.4168 3.3335 34.8335 3.3335 34.1668V9.5835C3.3335 9.22933 3.45398 8.93245 3.69495 8.69287C3.93595 8.45329 4.23457 8.3335 4.59079 8.3335C4.94704 8.3335 5.24322 8.45329 5.47933 8.69287C5.71544 8.93245 5.8335 9.22933 5.8335 9.5835V34.1668H30.4168C30.771 34.1668 31.0679 34.2873 31.3075 34.5283C31.547 34.7693 31.6668 35.0679 31.6668 35.4241C31.6668 35.7804 31.547 36.0765 31.3075 36.3127C31.0679 36.5488 30.771 36.6668 30.4168 36.6668H5.8335Z" fill="#C6C6C6"/>
</svg>
