<svg width="25" height="25" viewBox="0 0 25 25" fill="none" xmlns="http://www.w3.org/2000/svg">
<g clip-path="url(#clip0_39_141)">
<path d="M16.146 14.5835H15.3231L15.0314 14.3022C16.2814 12.8439 16.9272 10.8543 16.5731 8.73975C16.0835 5.84391 13.6668 3.53141 10.7502 3.17725C6.34391 2.63558 2.63558 6.34391 3.17725 10.7502C3.53141 13.6668 5.84391 16.0835 8.73975 16.5731C10.8543 16.9272 12.8439 16.2814 14.3022 15.0314L14.5835 15.3231V16.146L19.0106 20.5731C19.4377 21.0002 20.1356 21.0002 20.5627 20.5731C20.9897 20.146 20.9897 19.4481 20.5627 19.021L16.146 14.5835ZM9.896 14.5835C7.30225 14.5835 5.2085 12.4897 5.2085 9.896C5.2085 7.30225 7.30225 5.2085 9.896 5.2085C12.4897 5.2085 14.5835 7.30225 14.5835 9.896C14.5835 12.4897 12.4897 14.5835 9.896 14.5835Z" fill="#8A8A8A"/>
</g>
<defs>
<clipPath id="clip0_39_141">
<rect width="25" height="25" fill="white"/>
</clipPath>
</defs>
</svg>
