<svg width="50" height="50" viewBox="0 0 50 50" fill="none" xmlns="http://www.w3.org/2000/svg">
<g clip-path="url(#clip0_62_271)">
<path d="M1.5625 37.5C1.11979 37.5 0.748698 37.3503 0.449219 37.0508C0.14974 36.7513 0 36.3802 0 35.9375V34.7396C0 33.3693 0.716146 32.2715 2.14844 31.4462C3.58073 30.621 5.46875 30.2083 7.8125 30.2083C8.22917 30.2083 8.63715 30.2214 9.03646 30.2474C9.43576 30.2734 9.82639 30.3125 10.2083 30.3646C9.93056 30.9549 9.72222 31.5606 9.58333 32.1817C9.44444 32.8029 9.375 33.4645 9.375 34.1667V37.5H1.5625ZM14.0625 37.5C13.6198 37.5 13.2487 37.3503 12.9492 37.0508C12.6497 36.7513 12.5 36.3802 12.5 35.9375V34.1667C12.5 31.9097 13.6545 30.0781 15.9635 28.6719C18.2726 27.2656 21.2847 26.5625 25 26.5625C28.75 26.5625 31.7708 27.2656 34.0625 28.6719C36.3542 30.0781 37.5 31.9097 37.5 34.1667V35.9375C37.5 36.3802 37.3503 36.7513 37.0508 37.0508C36.7513 37.3503 36.3802 37.5 35.9375 37.5H14.0625ZM40.625 37.5V34.1667C40.625 33.4645 40.5556 32.8029 40.4167 32.1817C40.2778 31.5606 40.0694 30.9501 39.7917 30.3504C40.1736 30.2904 40.5642 30.2517 40.9635 30.2344C41.3628 30.217 41.7723 30.2083 42.1918 30.2083C44.5153 30.2083 46.3976 30.621 47.8385 31.4462C49.2795 32.2715 50 33.3693 50 34.7396V35.9375C50 36.3802 49.8503 36.7513 49.5508 37.0508C49.2513 37.3503 48.8802 37.5 48.4375 37.5H40.625ZM25 29.6875C22.1875 29.6875 19.9219 30.1128 18.2031 30.9635C16.4844 31.8142 15.625 32.8819 15.625 34.1667V34.375H34.375V34.1146C34.375 32.8646 33.5156 31.8142 31.7969 30.9635C30.0781 30.1128 27.8125 29.6875 25 29.6875ZM7.80786 28.6458C6.80401 28.6458 5.94618 28.2884 5.23438 27.5735C4.52257 26.8586 4.16667 25.9993 4.16667 24.9954C4.16667 23.9915 4.52411 23.1337 5.23901 22.4219C5.95387 21.7101 6.81325 21.3542 7.81714 21.3542C8.82099 21.3542 9.67882 21.7116 10.3906 22.4265C11.1024 23.1414 11.4583 24.0007 11.4583 25.0046C11.4583 26.0085 11.1009 26.8663 10.386 27.5781C9.67113 28.2899 8.81175 28.6458 7.80786 28.6458ZM42.1829 28.6458C41.179 28.6458 40.3212 28.2884 39.6094 27.5735C38.8976 26.8586 38.5417 25.9993 38.5417 24.9954C38.5417 23.9915 38.8991 23.1337 39.614 22.4219C40.3289 21.7101 41.1882 21.3542 42.1921 21.3542C43.196 21.3542 44.0538 21.7116 44.7656 22.4265C45.4774 23.1414 45.8333 24.0007 45.8333 25.0046C45.8333 26.0085 45.4759 26.8663 44.761 27.5781C44.0461 28.2899 43.1868 28.6458 42.1829 28.6458ZM25 25C23.2639 25 21.7882 24.3924 20.5729 23.1771C19.3576 21.9618 18.75 20.4861 18.75 18.75C18.75 17.0139 19.3576 15.5382 20.5729 14.3229C21.7882 13.1076 23.2639 12.5 25 12.5C26.7361 12.5 28.2118 13.1076 29.4271 14.3229C30.6424 15.5382 31.25 17.0139 31.25 18.75C31.25 20.4861 30.6424 21.9618 29.4271 23.1771C28.2118 24.3924 26.7361 25 25 25ZM25 15.625C24.1146 15.625 23.3724 15.9245 22.7734 16.5234C22.1745 17.1224 21.875 17.8646 21.875 18.75C21.875 19.6354 22.1745 20.3776 22.7734 20.9766C23.3724 21.5755 24.1146 21.875 25 21.875C25.8854 21.875 26.6276 21.5755 27.2266 20.9766C27.8255 20.3776 28.125 19.6354 28.125 18.75C28.125 17.8646 27.8255 17.1224 27.2266 16.5234C26.6276 15.9245 25.8854 15.625 25 15.625Z" fill="#C6C6C6"/>
</g>
<defs>
<clipPath id="clip0_62_271">
<rect width="50" height="50" fill="white"/>
</clipPath>
</defs>
</svg>
