<svg width="33" height="30" viewBox="0 0 33 30" fill="none" xmlns="http://www.w3.org/2000/svg">
<g clip-path="url(#clip0_286_118)">
<path d="M10.3779 30C22.8314 30 29.6423 18.459 29.6423 8.45114C29.6423 8.12284 29.6368 7.7961 29.6226 7.47252C30.9441 6.40276 32.0942 5.06912 33 3.55168C31.7867 4.15488 30.4806 4.56016 29.1115 4.74396C30.5087 3.80616 31.583 2.32328 32.0886 0.554508C30.7798 1.42161 29.3319 2.0531 27.79 2.3924C26.5542 0.920516 24.7945 0 22.8483 0C19.1085 0 16.0766 3.39146 16.0766 7.57304C16.0766 8.16682 16.1356 8.7449 16.2521 9.2994C10.625 8.98366 5.63552 5.96922 2.29605 1.38706C1.71467 2.5055 1.37904 3.80616 1.37904 5.19322C1.37904 7.82124 2.57411 10.1398 4.3927 11.497C3.28189 11.4593 2.23848 11.1169 1.32567 10.5498C1.32427 10.5812 1.32427 10.6126 1.32427 10.6456C1.32427 14.3135 3.65823 17.3767 6.75616 18.071C6.18741 18.2438 5.58917 18.338 4.97129 18.338C4.53453 18.338 4.11043 18.2894 3.69897 18.2014C4.56122 21.2096 7.0609 23.3994 10.024 23.4622C7.70687 25.4932 4.78731 26.7044 1.61496 26.7044C1.06868 26.7044 0.529426 26.6698 0 26.5992C2.99541 28.7464 6.55253 30 10.3779 30Z" fill="#EEF0F2"/>
</g>
<defs>
<clipPath id="clip0_286_118">
<rect width="33" height="30" fill="white"/>
</clipPath>
</defs>
</svg>
