<svg width="50" height="50" viewBox="0 0 50 50" fill="none" xmlns="http://www.w3.org/2000/svg">
<g clip-path="url(#clip0_501_103)">
<path d="M25 8.3335C14.5834 8.3335 5.68754 14.8127 2.08337 23.9585C5.68754 33.1043 14.5834 39.5835 25 39.5835C35.4167 39.5835 44.3125 33.1043 47.9167 23.9585C44.3125 14.8127 35.4167 8.3335 25 8.3335ZM25 34.3752C19.25 34.3752 14.5834 29.7085 14.5834 23.9585C14.5834 18.2085 19.25 13.5418 25 13.5418C30.75 13.5418 35.4167 18.2085 35.4167 23.9585C35.4167 29.7085 30.75 34.3752 25 34.3752ZM25 17.7085C21.5417 17.7085 18.75 20.5002 18.75 23.9585C18.75 27.4168 21.5417 30.2085 25 30.2085C28.4584 30.2085 31.25 27.4168 31.25 23.9585C31.25 20.5002 28.4584 17.7085 25 17.7085Z" fill="white"/>
</g>
<defs>
<clipPath id="clip0_501_103">
<rect width="50" height="50" fill="white"/>
</clipPath>
</defs>
</svg>
