<svg width="35" height="30" viewBox="0 0 35 30" fill="none" xmlns="http://www.w3.org/2000/svg">
<g clip-path="url(#clip0_286_122)">
<path d="M28.28 0.956212C21.1192 -0.318737 13.8109 -0.318737 6.65 0.956212C2.555 1.87496 0 4.70621 0 8.39996V21.525C0 25.275 2.555 28.0687 6.72 29.025C10.2821 29.6676 13.8877 29.9936 17.5 30C21.1234 29.9991 24.7404 29.6792 28.315 29.0437C32.375 28.2188 35 25.2937 35 21.5437V8.41871C35 4.68746 32.375 1.76246 28.28 0.956212ZM23.205 15.8437L14.455 21.4688C14.3181 21.558 14.1602 21.6036 14 21.6C13.8481 21.5987 13.6984 21.5602 13.5625 21.4875C13.4249 21.3981 13.3119 21.2709 13.2351 21.1194C13.1582 20.9679 13.1202 20.7973 13.125 20.625V9.37496C13.1263 9.20891 13.1672 9.04597 13.2438 8.9016C13.3203 8.75721 13.43 8.63617 13.5625 8.54996C13.6998 8.47117 13.8531 8.42996 14.0087 8.42996C14.1645 8.42996 14.3177 8.47117 14.455 8.54996L23.205 14.175C23.3315 14.2614 23.4356 14.3805 23.5077 14.5215C23.5798 14.6624 23.6176 14.8205 23.6176 14.9812C23.6176 15.1419 23.5798 15.3 23.5077 15.441C23.4356 15.5819 23.3315 15.701 23.205 15.7875V15.8437Z" fill="white"/>
</g>
<defs>
<clipPath id="clip0_286_122">
<rect width="35" height="30" fill="white"/>
</clipPath>
</defs>
</svg>
