<svg width="30" height="30" viewBox="0 0 30 30" fill="none" xmlns="http://www.w3.org/2000/svg">
<g clip-path="url(#clip0_363_127)">
<path d="M4.99998 11.2501C5.32498 11.5751 5.42498 12.0376 5.31248 12.4751C4.87498 14.1751 4.86248 16.0626 5.43748 17.9501C6.53748 21.5876 9.73747 24.3251 13.4875 24.8876C20.3875 25.9001 26.225 19.8126 24.775 12.8626C23.9625 8.95008 20.7375 5.85008 16.8125 5.16258C15.3 4.90008 13.8375 4.97508 12.4875 5.32508C12.05 5.43758 11.575 5.32508 11.2625 5.01258C10.5625 4.31258 10.9125 3.15008 11.85 2.90008C13.6875 2.42508 15.675 2.35008 17.725 2.78758C22.7 3.86258 26.5875 8.01258 27.35 13.0376C28.65 21.5501 21.325 28.7626 12.8 27.3126C7.78747 26.4501 3.72498 22.4876 2.74998 17.5001C2.36248 15.5126 2.44998 13.6001 2.89998 11.8376C3.14998 10.9001 4.31248 10.5626 4.99998 11.2501ZM8.74997 6.87508C8.74997 7.91258 7.91247 8.75008 6.87498 8.75008C5.83748 8.75008 4.99998 7.91258 4.99998 6.87508C4.99998 5.83758 5.83748 5.00008 6.87498 5.00008C7.91247 5.00008 8.74997 5.83758 8.74997 6.87508ZM15.0375 11.2376H14.95L13.5 15.3751H16.4875L15.0375 11.2376ZM15 22.5001C19.1375 22.5001 22.5 19.1376 22.5 15.0001C22.5 10.8626 19.1375 7.50008 15 7.50008C10.8625 7.50008 7.49997 10.8626 7.49997 15.0001C7.49997 19.1376 10.8625 22.5001 15 22.5001ZM10.7625 18.2876L13.8 10.2126C13.9875 9.71258 14.4625 9.37508 15 9.37508C15.5375 9.37508 16.025 9.71258 16.2125 10.2126L19.25 18.2876C19.45 18.8126 19.0625 19.3751 18.5 19.3751C18.1625 19.3751 17.85 19.1626 17.7375 18.8376L17.0375 16.8251H13L12.2875 18.8501C12.175 19.1751 11.875 19.3876 11.525 19.3876C10.95 19.3751 10.5625 18.8126 10.7625 18.2876Z" fill="white"/>
</g>
<defs>
<clipPath id="clip0_363_127">
<rect width="30" height="30" fill="white"/>
</clipPath>
</defs>
</svg>
