<svg width="30" height="30" viewBox="0 0 30 30" fill="none" xmlns="http://www.w3.org/2000/svg">
<g clip-path="url(#clip0_363_172)">
<path d="M3.75 21.75C3.75 22.8546 4.64543 23.75 5.75 23.75H24.25C25.3546 23.75 26.25 22.8546 26.25 21.75V21.75C26.25 20.6454 25.3546 19.75 24.25 19.75H5.75C4.64543 19.75 3.75 20.6454 3.75 21.75V21.75ZM11.25 13.75C11.25 14.8546 12.1454 15.75 13.25 15.75H24.25C25.3546 15.75 26.25 14.8546 26.25 13.75V13.75C26.25 12.6454 25.3546 11.75 24.25 11.75H13.25C12.1454 11.75 11.25 12.6454 11.25 13.75V13.75ZM5.75 3.75C4.64543 3.75 3.75 4.64543 3.75 5.75V5.75C3.75 6.85457 4.64543 7.75 5.75 7.75H24.25C25.3546 7.75 26.25 6.85457 26.25 5.75V5.75C26.25 4.64543 25.3546 3.75 24.25 3.75H5.75Z" fill="white"/>
</g>
<defs>
<clipPath id="clip0_363_172">
<rect width="30" height="30" fill="white"/>
</clipPath>
</defs>
</svg>
