<svg width="48" height="48" viewBox="0 0 48 48" fill="none" xmlns="http://www.w3.org/2000/svg">
<path d="M10.3929 26.4001C9.73097 26.4001 9.16667 26.1644 8.7 25.693C8.23333 25.2216 8 24.655 8 23.993C8 23.3311 8.2357 22.7668 8.7071 22.3001C9.17847 21.8334 9.74513 21.6001 10.4071 21.6001C11.069 21.6001 11.6333 21.8358 12.1 22.3072C12.5667 22.7786 12.8 23.3452 12.8 24.0072C12.8 24.6691 12.5643 25.2334 12.0929 25.7001C11.6215 26.1668 11.0549 26.4001 10.3929 26.4001ZM23.9929 26.4001C23.331 26.4001 22.7667 26.1644 22.3 25.693C21.8333 25.2216 21.6 24.655 21.6 23.993C21.6 23.3311 21.8357 22.7668 22.3071 22.3001C22.7785 21.8334 23.3451 21.6001 24.0071 21.6001C24.669 21.6001 25.2333 21.8358 25.7 22.3072C26.1667 22.7786 26.4 23.3452 26.4 24.0072C26.4 24.6691 26.1643 25.2334 25.6929 25.7001C25.2215 26.1668 24.6549 26.4001 23.9929 26.4001ZM37.5929 26.4001C36.931 26.4001 36.3667 26.1644 35.9 25.693C35.4333 25.2216 35.2 24.655 35.2 23.993C35.2 23.3311 35.4357 22.7668 35.9071 22.3001C36.3785 21.8334 36.9451 21.6001 37.6071 21.6001C38.269 21.6001 38.8333 21.8358 39.3 22.3072C39.7667 22.7786 40 23.3452 40 24.0072C40 24.6691 39.7643 25.2334 39.2929 25.7001C38.8215 26.1668 38.2549 26.4001 37.5929 26.4001Z" fill="#5E5E5E"/>
</svg>
