<svg width="48" height="48" viewBox="0 0 48 48" fill="none" xmlns="http://www.w3.org/2000/svg">
<g clip-path="url(#clip0_75_210)">
<path d="M38.9999 24C38.9999 23.54 38.9799 23.1 38.9399 22.64L42.6599 19.82C43.4599 19.22 43.6799 18.1 43.1799 17.22L39.4399 10.76C38.9399 9.88 37.8599 9.52 36.9399 9.92L32.6399 11.74C31.8999 11.22 31.1199 10.76 30.2999 10.38L29.7199 5.76C29.5999 4.76 28.7399 4 27.7399 4H20.2799C19.2599 4 18.3999 4.76 18.2799 5.76L17.6999 10.38C16.8799 10.76 16.0999 11.22 15.3599 11.74L11.0599 9.92C10.1399 9.52 9.05994 9.88 8.55994 10.76L4.81994 17.24C4.31994 18.12 4.53994 19.22 5.33994 19.84L9.05994 22.66C9.01994 23.1 8.99994 23.54 8.99994 24C8.99994 24.46 9.01994 24.9 9.05994 25.36L5.33994 28.18C4.53994 28.78 4.31994 29.9 4.81994 30.78L8.55994 37.24C9.05994 38.12 10.1399 38.48 11.0599 38.08L15.3599 36.26C16.0999 36.78 16.8799 37.24 17.6999 37.62L18.2799 42.24C18.3999 43.24 19.2599 44 20.2599 44H27.7199C28.7199 44 29.5799 43.24 29.6999 42.24L30.2799 37.62C31.0999 37.24 31.8799 36.78 32.6199 36.26L36.9199 38.08C37.8399 38.48 38.9199 38.12 39.4199 37.24L43.1599 30.78C43.6599 29.9 43.4399 28.8 42.6399 28.18L38.9199 25.36C38.9799 24.9 38.9999 24.46 38.9999 24ZM24.0799 31C20.2199 31 17.0799 27.86 17.0799 24C17.0799 20.14 20.2199 17 24.0799 17C27.9399 17 31.0799 20.14 31.0799 24C31.0799 27.86 27.9399 31 24.0799 31Z" fill="#5E5E5E"/>
</g>
<defs>
<clipPath id="clip0_75_210">
<rect width="48" height="48" fill="white"/>
</clipPath>
</defs>
</svg>
